HIERARCHY
ROOT Hips
{
	OFFSET 0.00000 0.00000 0.00000
	CHANNELS 6 Xposition Yposition Zposition Zrotation Yrotation Xrotation 
	JOINT LHipJoint
	{
		OFFSET 0 0 0
		CHANNELS 3 Zrotation Yrotation Xrotation
		JOINT LeftHip
		{
			OFFSET 2.36090 -1.39315 1.24752
			CHANNELS 3 Zrotation Yrotation Xrotation
			JOINT LeftKnee
			{
				OFFSET 2.06810 -5.68207 0.00000
				CHANNELS 3 Zrotation Yrotation Xrotation
				JOINT LeftAnkle
				{
					OFFSET 2.46631 -6.77613 0.00000
					CHANNELS 3 Zrotation Yrotation Xrotation
					JOINT LeftToe
					{
						OFFSET 0.26031 -0.71520 1.99545
						CHANNELS 3 Zrotation Yrotation Xrotation
						End Site
						{
							OFFSET 0.00000 -0.00000 1.05957
						}
					}
				}
			}
		}
	}
	JOINT RHipJoint
	{
		OFFSET 0 0 0
		CHANNELS 3 Zrotation Yrotation Xrotation
		JOINT RightHip
		{
			OFFSET -2.25243 -1.39315 1.24752
			CHANNELS 3 Zrotation Yrotation Xrotation
			JOINT RightKnee
			{
				OFFSET -2.17343 -5.97145 0.00000
				CHANNELS 3 Zrotation Yrotation Xrotation
				JOINT RightAnkle
				{
					OFFSET -2.52372 -6.93386 0.00000
					CHANNELS 3 Zrotation Yrotation Xrotation
					JOINT RightToe
					{
						OFFSET -0.22538 -0.61923 2.11447
						CHANNELS 3 Zrotation Yrotation Xrotation
						End Site
						{
							OFFSET -0.00000 -0.00000 1.10506
						}
					}
				}
			}
		}
	}
	JOINT lowerback
	{
		OFFSET 0 0 0
		CHANNELS 3 Zrotation Yrotation Xrotation
		JOINT Chest
		{
			OFFSET 0.01594 2.13103 0.08007
			CHANNELS 3 Zrotation Yrotation Xrotation
			JOINT Chest2
			{
				OFFSET 0.01393 2.09723 0.18338
				CHANNELS 3 Zrotation Yrotation Xrotation
				JOINT lowerneck
				{
					OFFSET 0 0 0
					CHANNELS 3 Zrotation Yrotation Xrotation
					JOINT Neck
					{
						OFFSET 0.05351 1.38915 0.32494
						CHANNELS 3 Zrotation Yrotation Xrotation
						JOINT Head
						{
							OFFSET 0.00711 1.45992 -0.21666
							CHANNELS 3 Zrotation Yrotation Xrotation
							End Site
							{
								OFFSET -0.00433 1.47702 -0.11056
							}
						}
					}
				}
				JOINT LeftCollar
				{
					OFFSET 0 0 0
					CHANNELS 3 Zrotation Yrotation Xrotation
					JOINT LeftShoulder
					{
						OFFSET 2.87198 0.92249 0.11132
CHANNELS 3 Zrotation Xrotation Yrotation
						JOINT LeftElbow
						{
OFFSET 0 -5.527310 0.000000
CHANNELS 3 Zrotation Xrotation Yrotation
							JOINT LeftWrist
							{
OFFSET 0 -3.110590 0.000000
CHANNELS 3 Zrotation Xrotation Yrotation
								JOINT lhand
								{
									OFFSET 0 0 0
CHANNELS 3 Zrotation Xrotation Yrotation
									JOINT LFingers
									{
OFFSET 0 -0.419630 0.000000
CHANNELS 3 Zrotation Xrotation Yrotation
										End Site
										{
OFFSET 0 -0.338310 0.000000
										}
									}
								}
								JOINT LThumb
								{
OFFSET 0 0.000000 0.000000
CHANNELS 3 Zrotation Xrotation Yrotation
									End Site
									{
OFFSET 0 -0.343480 0.343480
									}
								}
							}
						}
					}
				}
				JOINT RightCollar
				{
					OFFSET 0 0 0
					CHANNELS 3 Zrotation Yrotation Xrotation
					JOINT RightShoulder
					{
						OFFSET -2.94710 0.68072 0.32187
CHANNELS 3 Zrotation Xrotation Yrotation
						JOINT RightElbow
						{
OFFSET 0 -5.253960 -0.000000
CHANNELS 3 Zrotation Xrotation Yrotation
							JOINT RightWrist
							{
OFFSET 0 -3.105670 0.000000
CHANNELS 3 Zrotation Xrotation Yrotation
								JOINT rhand
								{
									OFFSET 0 0 0
CHANNELS 3 Zrotation Xrotation Yrotation
									JOINT RFingers
									{
OFFSET 0 -0.498680 0.000000
CHANNELS 3 Zrotation Xrotation Yrotation
										End Site
										{
OFFSET 0 -0.402040 0.000000
										}
									}
								}
								JOINT RThumb
								{
OFFSET 0 0.000000 0.000000
CHANNELS 3 Zrotation Xrotation Yrotation
									End Site
									{
OFFSET 0 -0.408180 0.408180
									}
								}
							}
						}
					}
				}
			}
		}
	}
}
MOTION
Frames: 11
Frame Time: 0.008333333333333333
8.247200 15.460500 24.229800 -175.725000 -4.003900 -156.042000 0.000000 0.000000 0.000000 -12.208000 -16.324600 -33.325500 3.315100 11.188500 32.918400 1.174900 1.840000 -21.216700 0.568100 -4.827400 -13.416800 0.000000 0.000000 0.000000 -4.710500 27.806400 -50.591400 -3.234800 -11.065800 32.502100 0.402000 -13.723900 -13.599200 -0.233900 3.112500 -8.592200 -3.554000 -0.653100 -8.602800 0.997100 -1.004500 -4.571100 2.941100 -0.602200 0.151400 2.578200 4.010500 -15.979000 -0.747100 3.389100 30.772200 -0.357500 1.015200 13.016700 0.000000 -0.000000 0.000000 11.749300 -4.196300 -40.951600 19.515100 -30.053700 5.286400 28.830900 -45.954800 0.947600 0.000000 0.000000 0.000000 -7.125000 0.000000 0.000000 1.764000 28.896200 0.692300 0.000000 -0.000000 0.000000 -22.350700 15.195800 30.142600 -33.637800 -43.814600 -13.861700 -9.082300 -12.807300 24.680200 0.000000 0.000000 0.000000 7.125000 0.000000 -0.000000 21.234700 53.655200 -4.683500
8.266092 15.462098 24.183087 -175.873504 -4.123079 -155.964928 0.000000 0.000000 0.000000 -12.321446 -16.315389 -33.041744 3.249307 11.088025 32.577498 1.169731 1.781726 -21.146865 0.585676 -4.899866 -13.623202 0.000000 0.000000 0.000000 -5.540244 27.931125 -50.367234 -3.015991 -10.720387 31.343204 0.480670 -14.592743 -13.997342 -0.238599 3.143611 -8.678953 -3.492531 -0.646333 -8.677992 1.024169 -0.996041 -4.548636 2.934051 -0.599662 0.215313 2.591265 3.944989 -15.953435 -0.785448 3.297742 30.791468 -0.389739 0.970179 13.018674 0.000000 0.000000 0.000000 11.617714 -4.155508 -41.452379 19.641517 -30.208032 5.349843 28.399298 -46.547783 1.116312 0.000000 0.000000 0.000000 -7.125000 0.000000 0.000000 1.423662 28.709630 0.564850 0.000000 0.000000 0.000000 -22.493471 15.085268 30.089308 -34.032182 -44.108413 -14.135493 -9.379214 -12.683703 24.535267 0.000000 0.000000 0.000000 7.125000 0.000000 0.000000 20.865037 53.573617 -4.553700
8.286040 15.462464 24.135318 -176.036965 -4.240147 -155.878179 0.000000 0.000000 0.000000 -12.451784 -16.296060 -32.745319 3.179379 10.979807 32.211962 1.167288 1.717910 -21.097882 0.597973 -4.950426 -13.767314 0.000000 0.000000 0.000000 -6.367964 28.059545 -50.252427 -2.836510 -10.424946 30.364754 0.544383 -15.347565 -14.518479 -0.238284 3.141729 -8.673503 -3.445490 -0.643613 -8.725822 1.061708 -0.990837 -4.513064 2.945829 -0.597564 0.278347 2.592188 3.893643 -16.083682 -0.833738 3.240784 30.845224 -0.415731 0.940378 13.068773 0.000000 0.000000 0.000000 11.442138 -4.184661 -41.834208 19.736348 -30.323300 5.397626 28.027522 -46.925743 1.099210 0.000000 0.000000 0.000000 -7.125000 0.000000 0.000000 1.134617 28.733772 0.449540 0.000000 0.000000 0.000000 -22.636857 14.818131 29.976717 -34.294418 -44.301576 -14.318314 -9.450900 -12.556587 24.500222 0.000000 0.000000 0.000000 7.125000 0.000000 0.000000 20.775855 53.553795 -4.522613
8.308847 15.464303 24.084280 -176.225219 -4.323545 -155.770275 0.000000 0.000000 0.000000 -12.609506 -16.252597 -32.456964 3.110726 10.872044 31.849744 1.167246 1.665928 -21.074996 0.605238 -4.979816 -13.850940 0.000000 0.000000 0.000000 -7.072017 28.132477 -50.100581 -2.664797 -10.130542 29.401582 0.585926 -15.811965 -14.830061 -0.230085 3.087100 -8.521257 -3.440993 -0.644857 -8.814572 1.109798 -0.995036 -4.534384 2.991846 -0.601480 0.305909 2.545887 3.837526 -15.997106 -0.848771 3.167158 30.873138 -0.427361 0.896535 13.059534 0.000000 0.000000 0.000000 11.289624 -4.068914 -42.302424 19.807710 -30.409916 5.433683 27.712622 -47.294916 1.302046 0.000000 0.000000 0.000000 -7.125000 0.000000 0.000000 0.885880 28.508774 0.355389 0.000000 0.000000 0.000000 -22.777827 14.720959 29.996883 -34.654844 -44.563769 -14.570744 -9.803603 -12.455297 24.625393 0.000000 0.000000 0.000000 7.125000 0.000000 0.000000 20.503613 53.734593 -4.551468
8.331834 15.463864 24.033306 -176.407843 -4.408483 -155.665444 0.000000 0.000000 0.000000 -12.757858 -16.207747 -32.173564 3.045112 10.767616 31.500336 1.164414 1.613990 -21.028459 0.616527 -5.025083 -13.980024 0.000000 0.000000 0.000000 -7.816293 28.250180 -49.972364 -2.509477 -9.854096 28.506523 0.636597 -16.355088 -15.196959 -0.227085 3.067376 -8.466299 -3.422766 -0.643073 -8.902683 1.151051 -0.994201 -4.539948 3.023401 -0.602780 0.348864 2.518153 3.784062 -15.966048 -0.871817 3.097809 30.906869 -0.443556 0.857240 13.065343 0.000000 0.000000 0.000000 11.146173 -3.993886 -42.773408 19.874352 -30.490594 5.467418 27.475498 -47.596438 1.430068 0.000000 0.000000 0.000000 -7.125000 0.000000 0.000000 0.699510 28.367732 0.283057 0.000000 0.000000 0.000000 -22.898383 14.577964 29.984319 -34.983972 -44.800403 -14.802161 -10.132091 -12.350689 24.653548 0.000000 0.000000 0.000000 7.125000 0.000000 0.000000 20.199590 53.820680 -4.523103
8.356027 15.462061 23.981408 -176.592501 -4.486140 -155.559257 0.000000 0.000000 0.000000 -12.905311 -16.153171 -31.893829 2.981913 10.665554 31.160230 1.160142 1.563876 -20.969782 0.630472 -5.080469 -14.138293 0.000000 0.000000 0.000000 -8.548814 28.382759 -49.873339 -2.373819 -9.603749 27.703774 0.685765 -16.875462 -15.570304 -0.227120 3.067558 -8.466885 -3.404589 -0.640371 -8.994470 1.192228 -0.991851 -4.542138 3.054992 -0.603390 0.397194 2.491685 3.734296 -15.954127 -0.897107 3.035382 30.943171 -0.459432 0.821229 13.076554 0.000000 0.000000 0.000000 11.007044 -3.929325 -43.252813 19.930052 -30.557966 5.495726 27.366148 -47.777123 1.488097 0.000000 0.000000 0.000000 -7.125000 0.000000 0.000000 0.613610 28.303985 0.249332 0.000000 0.000000 0.000000 -23.002846 14.409691 29.967408 -35.288720 -45.016927 -15.017277 -10.461581 -12.245436 24.669868 0.000000 0.000000 0.000000 7.125000 0.000000 0.000000 19.887158 53.896196 -4.486019
8.381675 15.459354 23.928318 -176.781159 -4.552584 -155.449551 0.000000 0.000000 0.000000 -13.051807 -16.087796 -31.625604 2.923600 10.570247 30.843884 1.156078 1.513828 -20.913187 0.646801 -5.144709 -14.321841 0.000000 0.000000 0.000000 -9.239416 28.514085 -49.783869 -2.252915 -9.373156 26.970580 0.731308 -17.343559 -15.913552 -0.229794 3.085324 -8.516456 -3.390284 -0.637070 -9.091537 1.234565 -0.988990 -4.547384 3.090025 -0.603856 0.445181 2.461152 3.688073 -15.936033 -0.920829 2.978339 30.979161 -0.473316 0.787137 13.086302 0.000000 0.000000 0.000000 10.875047 -3.856089 -43.747077 19.975857 -30.613267 5.519034 27.402480 -47.831712 1.490994 0.000000 0.000000 0.000000 -7.125000 0.000000 0.000000 0.641673 28.300153 0.260779 0.000000 0.000000 0.000000 -23.089988 14.234921 29.961238 -35.578758 -45.220708 -15.222763 -10.813818 -12.143420 24.684061 0.000000 0.000000 0.000000 7.125000 0.000000 0.000000 19.550526 53.974063 -4.443250
8.408905 15.455535 23.874143 -176.970439 -4.608867 -155.339222 0.000000 0.000000 0.000000 -13.193089 -16.013724 -31.367436 2.870081 10.481620 30.550930 1.153152 1.463276 -20.866132 0.665797 -5.218276 -14.532283 0.000000 0.000000 0.000000 -9.877261 28.639003 -49.707611 -2.147489 -9.166058 26.316732 0.772846 -17.763797 -16.233201 -0.236703 3.130906 -8.643514 -3.375294 -0.632224 -9.190632 1.277548 -0.984440 -4.554029 3.125466 -0.603594 0.492639 2.429767 3.646006 -15.911590 -0.945341 2.928019 31.011727 -0.486336 0.755762 13.093334 0.000000 0.000000 0.000000 10.750597 -3.777286 -44.250073 20.013329 -30.658415 5.538117 27.556758 -47.770534 1.443538 0.000000 0.000000 0.000000 -7.125000 0.000000 0.000000 0.762257 28.351280 0.308796 0.000000 0.000000 0.000000 -23.157206 14.046995 29.961632 -35.848724 -45.408467 -15.414696 -11.162981 -12.044785 24.699396 0.000000 0.000000 0.000000 7.125000 0.000000 0.000000 19.216773 54.052788 -4.400490
8.437703 15.450589 23.819067 -177.159359 -4.653691 -155.230292 0.000000 0.000000 0.000000 -13.328203 -15.932476 -31.117062 2.821200 10.399699 30.281136 1.152671 1.412408 -20.840554 0.686793 -5.298174 -14.761044 0.000000 0.000000 0.000000 -10.453483 28.753367 -49.647513 -2.058178 -8.985727 25.751047 0.808824 -18.132815 -16.540286 -0.246930 3.197386 -8.828739 -3.360831 -0.625598 -9.287124 1.322964 -0.977846 -4.561721 3.164045 -0.602314 0.537475 2.395240 3.607855 -15.878261 -0.972068 2.885509 31.038380 -0.498434 0.727243 13.096160 0.000000 0.000000 0.000000 10.629950 -3.689636 -44.747326 20.046772 -30.698606 5.555194 27.783797 -47.622131 1.372016 0.000000 0.000000 0.000000 -7.125000 0.000000 0.000000 0.939824 28.428555 0.379038 0.000000 0.000000 0.000000 -23.208889 13.844490 29.971634 -36.098994 -45.580890 -15.593181 -11.492416 -11.948813 24.729043 0.000000 0.000000 0.000000 7.125000 0.000000 0.000000 18.909425 54.141758 -4.367862
8.468088 15.444449 23.763200 -177.347820 -4.686722 -155.124040 0.000000 0.000000 0.000000 -13.455950 -15.848119 -30.875712 2.777842 10.326315 30.040126 1.155863 1.363070 -20.848448 0.709377 -5.382658 -15.003312 0.000000 0.000000 0.000000 -10.956983 28.849484 -49.601156 -1.983704 -8.831686 25.270437 0.838325 -18.446689 -16.831552 -0.260413 3.282622 -9.066549 -3.347489 -0.616612 -9.377491 1.370789 -0.968537 -4.571326 3.206181 -0.599564 0.576800 2.359764 3.573958 -15.831230 -1.003287 2.851147 31.058113 -0.510957 0.701639 13.093370 0.000000 0.000000 0.000000 10.511901 -3.589363 -45.224506 20.078199 -30.736383 5.571237 28.026556 -47.422076 1.304172 0.000000 0.000000 0.000000 -7.125000 0.000000 0.000000 1.129665 28.501724 0.453737 0.000000 0.000000 0.000000 -23.245301 13.626744 29.993130 -36.325868 -45.735858 -15.755423 -11.794569 -11.855217 24.771763 0.000000 0.000000 0.000000 7.125000 0.000000 0.000000 18.635338 54.238363 -4.345723
8.500145 15.436949 23.706541 -177.534204 -4.708006 -155.020908 0.000000 0.000000 0.000000 -13.573902 -15.763331 -30.644998 2.740915 10.263240 29.833456 1.163509 1.318383 -20.897159 0.733833 -5.472620 -15.261773 0.000000 0.000000 0.000000 -11.375235 28.919644 -49.566909 -1.922796 -8.703161 24.871174 0.860861 -18.700791 -17.095820 -0.277241 3.386003 -9.355392 -3.333994 -0.604595 -9.459240 1.421124 -0.955716 -4.582787 3.251329 -0.594926 0.609190 2.324520 3.544668 -15.769574 -1.040018 2.825661 31.069554 -0.524346 0.679282 13.084174 0.000000 0.000000 0.000000 10.396143 -3.476708 -45.671407 20.107609 -30.771783 5.586264 28.239422 -47.198705 1.258248 0.000000 0.000000 0.000000 -7.125000 0.000000 0.000000 1.296006 28.550671 0.519119 0.000000 0.000000 0.000000 -23.266365 13.390564 30.027991 -36.524187 -45.870230 -15.897621 -12.064833 -11.765392 24.820166 0.000000 0.000000 0.000000 7.125000 0.000000 0.000000 18.395095 54.334739 -4.330632
